<?xml version="1.0" standalone="no"?>
<!DOCTYPE svg PUBLIC "-//W3C//DTD SVG 20010904//EN"
 "http://www.w3.org/TR/2001/REC-SVG-20010904/DTD/svg10.dtd">
<svg version="1.0" xmlns="http://www.w3.org/2000/svg"
 width="321.000000pt" height="321.000000pt" viewBox="0 0 321.000000 321.000000"
 preserveAspectRatio="xMidYMid meet">
<metadata>
Created by potrace 1.14, written by Peter Selinger 2001-2017
</metadata>
<g transform="translate(0.000000,321.000000) scale(0.100000,-0.100000)"
fill="#000000" stroke="none">
<path d="M1037 2746 c-111 -63 -201 -133 -288 -223 -164 -169 -260 -337 -325
-567 -33 -117 -39 -178 -38 -371 1 -136 5 -175 26 -260 47 -183 119 -338 227
-485 51 -70 189 -210 206 -210 7 0 20 9 30 20 18 20 18 19 59 -18 65 -59 181
-132 278 -174 l88 -38 368 0 c410 0 399 -2 541 73 73 38 170 102 220 146 24
21 25 21 45 2 16 -14 24 -16 32 -8 6 7 26 26 45 43 198 180 352 469 393 739
14 88 15 350 2 405 -4 14 -9 39 -12 55 -27 154 -109 343 -212 489 -61 87 -191
225 -257 272 -22 16 -42 31 -45 34 -9 10 -85 57 -142 88 l-57 32 -248 -1
c-136 -1 -238 -4 -226 -6 31 -6 18 -33 -17 -33 -39 0 -66 -33 -54 -67 5 -14
19 -30 32 -34 20 -7 22 -5 22 21 0 23 5 30 19 30 15 0 19 -7 18 -40 -1 -44
-15 -54 -61 -46 -90 16 -91 138 -1 168 11 3 -117 6 -285 7 l-305 1 -78 -44z
m493 14 c0 -13 -7 -20 -19 -20 -15 0 -19 -5 -15 -22 3 -13 7 -44 11 -70 5 -39
3 -48 -9 -48 -11 0 -19 19 -28 65 -11 58 -15 65 -36 65 -44 0 -27 27 24 38 69
14 72 14 72 -8z m393 -21 c22 -28 22 -35 -7 -64 -13 -13 -22 -26 -20 -28 3 -2
9 -18 13 -34 8 -27 7 -30 -10 -26 -10 3 -23 20 -29 39 -14 42 -29 44 -36 4 -7
-32 -21 -39 -30 -16 -5 13 8 97 22 147 6 23 73 8 97 -22z m-535 -31 c9 -19 10
-33 3 -45 -8 -14 -4 -24 16 -45 24 -25 24 -28 9 -34 -12 -5 -26 2 -43 20 -29
32 -46 26 -32 -11 7 -20 6 -28 -3 -34 -18 -11 -24 -2 -42 61 -8 30 -18 65 -21
77 -6 19 -2 23 26 32 50 14 72 9 87 -21z m623 11 c-15 -60 -40 -141 -45 -146
-3 -4 -11 -2 -17 4 -16 16 30 165 50 160 9 -2 14 -10 12 -18z m120 -32 c9 -7
21 -22 28 -35 16 -30 -1 -84 -33 -106 -25 -16 -78 -12 -107 8 -16 11 -15 17
12 76 15 36 29 70 29 77 0 13 43 1 71 -20z m-933 -44 c16 -16 46 -43 67 -62
27 -24 34 -36 24 -41 -6 -5 -18 -6 -25 -3 -15 6 -55 -14 -71 -36 -6 -9 -14
-13 -18 -10 -7 8 -19 179 -12 179 3 0 18 -12 35 -27z m-84 -107 c34 -50 40
-76 16 -76 -5 0 -19 17 -32 38 l-23 37 -5 -30 c-5 -25 -10 -30 -33 -28 -32 2
-33 -4 -7 -37 23 -29 26 -50 7 -50 -13 0 -87 92 -87 109 0 5 -6 11 -12 14 -7
2 -10 8 -6 12 4 4 26 3 50 -3 23 -6 45 -9 50 -6 4 3 8 22 8 43 0 68 14 64 74
-23z m1226 38 c46 -31 55 -60 15 -50 -21 5 -30 -1 -61 -44 -20 -27 -40 -50
-44 -50 -23 0 -17 24 16 70 34 47 35 52 20 69 -15 17 -13 31 6 31 5 0 26 -12
48 -26z m118 -97 c12 -11 22 -24 22 -29 0 -12 -34 -10 -48 4 -9 9 -15 9 -24
-1 -11 -10 -9 -15 6 -27 27 -19 8 -41 -21 -25 -32 16 -47 -7 -20 -30 16 -13
19 -21 11 -29 -8 -8 -20 -3 -46 18 l-36 28 56 61 c58 63 61 64 100 30z m-1572
-39 c-19 -29 -12 -40 18 -29 42 15 70 8 80 -22 12 -33 1 -56 -35 -74 -35 -18
-44 5 -13 34 13 12 24 25 24 28 0 4 -22 4 -49 0 -43 -6 -51 -4 -60 14 -16 29
-13 49 10 72 28 28 47 11 25 -23z m968 -34 c51 -12 65 -19 51 -24 -11 -4 -33
-4 -50 -1 -26 5 -230 7 -336 2 l-36 -1 -52 -123 c-28 -67 -51 -132 -51 -144 0
-16 -4 -21 -15 -17 -23 9 -28 -20 -11 -60 15 -35 15 -37 -3 -31 -16 5 -22 -3
-37 -42 -9 -26 -30 -79 -46 -118 -16 -38 -30 -78 -31 -87 -2 -21 -23 -24 -34
-5 -15 25 -50 26 -73 2 -17 -18 -30 -22 -75 -20 -30 1 -55 -2 -55 -7 0 -18 2
-23 11 -20 13 3 99 -48 99 -59 0 -5 -24 -9 -54 -9 -39 0 -55 -4 -60 -15 -3
-10 -1 -15 7 -14 6 2 33 -8 60 -21 l47 -24 0 -65 c0 -43 -9 -92 -27 -147 -24
-73 -30 -83 -52 -86 -32 -4 -42 -42 -14 -55 13 -7 254 -10 306 -4 4 1 7 15 7
31 0 27 -3 30 -30 30 -23 0 -30 5 -31 20 -1 11 -2 25 -3 32 -1 8 32 13 102 15
112 5 108 8 92 -62 -4 -22 -10 -60 -11 -85 -3 -61 -35 -123 -59 -117 -10 2
-24 1 -31 -4 -10 -6 -3 -9 19 -9 26 0 33 -4 30 -17 -2 -9 -13 -18 -26 -20 -16
-2 -21 1 -16 9 5 10 4 10 -6 1 -18 -17 -2 -34 26 -27 18 5 24 2 24 -10 0 -9
-7 -16 -15 -16 -8 0 -15 -6 -15 -14 0 -7 -3 -28 -6 -45 -5 -23 -3 -31 8 -31
11 0 13 -14 10 -65 -3 -44 -1 -65 7 -65 6 0 11 -4 11 -10 0 -17 -124 37 -191
84 -42 29 -109 90 -109 99 0 6 10 21 22 34 l22 23 -46 48 c-107 111 -167 209
-210 347 -29 92 -32 111 -32 235 0 126 2 142 33 237 80 249 263 439 501 522
139 49 317 59 454 25z m721 -47 c10 -15 12 -24 4 -32 -7 -7 -12 -6 -17 1 -4 6
-17 16 -29 23 -25 13 -68 -1 -77 -25 -7 -18 10 -64 23 -64 6 0 8 -7 5 -15 -15
-39 -64 7 -64 60 0 37 15 59 54 79 34 17 78 5 101 -27z m-1783 -64 c8 -10 17
-25 20 -33 3 -9 18 -16 34 -18 33 -3 38 -7 29 -22 -5 -8 -22 -10 -46 -7 -45 6
-53 -12 -15 -33 23 -12 23 -14 9 -29 -12 -12 -17 -13 -21 -3 -2 6 -8 12 -13
12 -11 0 -109 70 -109 77 0 4 11 21 26 40 28 37 62 43 86 16z m1443 -99 c156
-155 243 -366 239 -584 -2 -167 -39 -288 -133 -435 -44 -70 -44 -70 -52 -41
-11 41 22 106 55 106 22 0 35 15 42 48 3 17 -23 42 -46 42 -29 0 -59 61 -53
107 5 35 2 40 -22 51 -27 12 -46 6 -66 -22 -4 -4 -27 -9 -52 -10 -38 -1 -47 2
-51 18 -3 12 0 24 7 27 31 18 61 52 49 56 -6 3 -10 9 -7 13 3 5 -3 7 -15 5
-11 -2 -21 -1 -24 3 -2 4 -42 5 -88 2 -72 -4 -85 -3 -102 14 -19 19 -19 19
-36 -2 -16 -19 -19 -19 -38 -6 -11 8 -27 11 -36 8 -9 -3 -20 3 -28 15 -7 12
-18 21 -25 21 -8 0 -13 13 -13 34 0 19 -2 40 -3 48 -2 7 -2 10 0 6 8 -15 22
-8 17 7 -4 8 -12 15 -20 15 -13 0 88 152 146 220 16 19 30 39 30 44 0 17 15
-5 15 -22 2 -35 17 -62 35 -62 10 0 22 5 25 10 3 6 -3 10 -14 10 -23 0 -40 45
-24 61 6 6 44 10 86 10 90 0 108 11 100 61 -3 18 -10 36 -16 40 -18 12 -89 10
-82 -2 3 -5 22 -10 41 -10 19 0 34 -3 35 -7 0 -5 2 -18 5 -31 2 -13 -2 -24 -9
-27 -28 -9 -187 -10 -184 0 2 6 15 11 28 12 13 0 29 1 36 2 14 1 43 29 43 42
0 5 -11 19 -24 30 l-24 21 27 26 c41 41 81 99 81 117 0 26 72 -19 145 -91z
m398 83 c3 -8 -8 -21 -25 -32 -30 -17 -30 -17 -10 -37 18 -19 21 -19 45 -3 29
18 49 3 26 -20 -30 -29 -128 -84 -133 -76 -10 15 4 39 25 44 22 6 23 15 5 40
-14 18 -16 18 -41 1 -19 -13 -29 -14 -37 -6 -14 14 -18 10 62 61 72 45 76 47
83 28z m-1890 -137 c34 -27 41 -52 27 -95 -19 -57 -75 -77 -127 -45 -18 11
-35 31 -39 45 -21 86 71 149 139 95z m1222 0 c3 -6 -1 -7 -9 -4 -18 7 -21 14
-7 14 6 0 13 -4 16 -10z m748 -17 c-4 -10 -15 -33 -25 -51 -26 -47 -23 -54 19
-37 25 11 40 12 47 5 6 -6 6 -13 1 -18 -14 -13 -145 -66 -149 -61 -3 2 6 27
19 54 31 65 31 68 -5 50 -36 -18 -60 -19 -60 -2 0 7 30 27 68 44 80 37 94 39
85 16z m-1333 -58 c11 -13 10 -14 -4 -9 -9 3 -16 10 -16 15 0 13 6 11 20 -6z
m45 5 c3 -5 1 -10 -4 -10 -6 0 -11 5 -11 10 0 6 2 10 4 10 3 0 8 -4 11 -10z
m52 -6 c-3 -3 -12 -4 -19 -1 -8 3 -5 6 6 6 11 1 17 -2 13 -5z m40 0 c-3 -3
-12 -4 -19 -1 -8 3 -5 6 6 6 11 1 17 -2 13 -5z m43 -4 c0 -5 -2 -10 -4 -10 -3
0 -8 5 -11 10 -3 6 -1 10 4 10 6 0 11 -4 11 -10z m-150 -24 c0 -11 -19 -15
-25 -6 -3 5 1 10 9 10 9 0 16 -2 16 -4z m40 0 c0 -3 -4 -8 -10 -11 -5 -3 -10
-1 -10 4 0 6 5 11 10 11 6 0 10 -2 10 -4z m40 -6 c0 -5 -4 -10 -10 -10 -5 0
-10 5 -10 10 0 6 5 10 10 10 6 0 10 -4 10 -10z m50 6 c0 -11 -19 -15 -25 -6
-3 5 1 10 9 10 9 0 16 -2 16 -4z m40 -6 c0 -5 -4 -10 -10 -10 -5 0 -10 5 -10
10 0 6 5 10 10 10 6 0 10 -4 10 -10z m-155 -30 c3 -5 -1 -10 -10 -10 -9 0 -13
5 -10 10 3 6 8 10 10 10 2 0 7 -4 10 -10z m175 0 c0 -5 -5 -10 -11 -10 -5 0
-7 5 -4 10 3 6 8 10 11 10 2 0 4 -4 4 -10z m-130 -4 c0 -11 -19 -15 -25 -6 -3
5 1 10 9 10 9 0 16 -2 16 -4z m40 0 c0 -3 -4 -8 -10 -11 -5 -3 -10 -1 -10 4 0
6 5 11 10 11 6 0 10 -2 10 -4z m50 0 c0 -11 -19 -15 -25 -6 -3 5 1 10 9 10 9
0 16 -2 16 -4z m-975 -41 c0 -34 24 -46 32 -16 8 30 38 23 38 -9 0 -17 6 -26
20 -28 28 -5 41 -20 29 -32 -6 -6 -32 -3 -74 10 -36 11 -66 20 -67 20 -2 0 -8
0 -13 0 -10 0 -8 29 5 71 9 29 30 18 30 -16z m855 3 c0 -4 -4 -8 -9 -8 -6 0
-12 4 -15 8 -3 5 1 9 9 9 8 0 15 -4 15 -9z m50 -4 c0 -2 -7 -4 -15 -4 -8 0
-15 4 -15 10 0 5 7 7 15 4 8 -4 15 -8 15 -10z m35 6 c3 -5 1 -10 -4 -10 -6 0
-11 5 -11 10 0 6 2 10 4 10 3 0 8 -4 11 -10z m45 0 c0 -5 -4 -10 -10 -10 -5 0
-10 5 -10 10 0 6 5 10 10 10 6 0 10 -4 10 -10z m45 0 c3 -5 2 -10 -4 -10 -5 0
-13 5 -16 10 -3 6 -2 10 4 10 5 0 13 -4 16 -10z m1134 -11 c61 -22 79 -118 28
-154 -66 -46 -158 10 -141 88 7 35 22 53 56 66 13 6 23 10 24 10 1 1 15 -4 33
-10z m-1289 -23 c0 -11 -19 -15 -25 -6 -3 5 1 10 9 10 9 0 16 -2 16 -4z m40 0
c0 -3 -4 -8 -10 -11 -5 -3 -10 -1 -10 4 0 6 5 11 10 11 6 0 10 -2 10 -4z m45
-6 c3 -6 -1 -7 -9 -4 -18 7 -21 14 -7 14 6 0 13 -4 16 -10z m45 0 c0 -5 -4
-10 -10 -10 -5 0 -10 5 -10 10 0 6 5 10 10 10 6 0 10 -4 10 -10z m47 4 c-3 -3
-12 -4 -19 -1 -8 3 -5 6 6 6 11 1 17 -2 13 -5z m-162 -34 c3 -5 -1 -10 -10
-10 -9 0 -13 5 -10 10 3 6 8 10 10 10 2 0 7 -4 10 -10z m40 0 c3 -5 1 -10 -4
-10 -6 0 -11 5 -11 10 0 6 2 10 4 10 3 0 8 -4 11 -10z m55 -6 c0 -2 -7 -4 -15
-4 -8 0 -15 4 -15 10 0 5 7 7 15 4 8 -4 15 -8 15 -10z m40 6 c0 -5 -4 -10 -10
-10 -5 0 -10 5 -10 10 0 6 5 10 10 10 6 0 10 -4 10 -10z m-1064 -135 c-5 -20
-3 -25 14 -25 14 0 20 7 20 21 0 14 5 19 18 17 11 -2 16 -11 14 -26 -2 -16 2
-22 16 -22 14 0 19 7 18 23 -1 15 5 23 19 25 18 2 20 -2 17 -42 l-4 -45 -46 5
c-26 3 -61 7 -77 8 -44 3 -52 11 -47 50 3 28 9 36 24 36 17 0 19 -5 14 -25z
m2284 -27 c0 -14 -8 -18 -37 -19 -21 -1 -42 -2 -48 -4 -5 -1 -20 -3 -31 -3
-16 -2 -21 -8 -19 -27 3 -18 -2 -25 -14 -25 -15 0 -18 8 -17 42 l1 42 45 4
c25 1 49 4 55 6 5 1 22 2 37 2 20 0 28 -5 28 -18z m-1750 -14 c0 -8 -19 -13
-24 -6 -3 5 1 9 9 9 8 0 15 -2 15 -3z m-495 -70 c21 -14 26 -14 53 0 26 14 31
14 36 1 3 -9 -4 -19 -17 -26 -48 -26 -62 -54 -23 -47 14 3 31 1 38 -3 24 -15
-6 -28 -72 -29 -110 -3 -103 -6 -97 48 3 26 6 48 6 50 1 2 39 19 49 21 1 1 13
-6 27 -15z m505 -35 c0 -5 -4 -9 -8 -9 -5 0 -9 7 -9 15 0 8 4 12 9 9 4 -3 8
-9 8 -15z m1726 -14 c20 -19 22 -88 4 -110 -57 -68 -160 -35 -160 51 0 80 98
117 156 59z m-911 -5 c3 -5 1 -10 -4 -10 -6 0 -11 5 -11 10 0 6 2 10 4 10 3 0
8 -4 11 -10z m-1320 -129 c76 18 101 18 102 -1 1 -14 -9 -19 -54 -25 -75 -9
-85 -14 -78 -36 5 -14 1 -19 -13 -19 -16 0 -21 10 -26 52 -5 37 -4 53 6 59 9
6 16 1 23 -14 8 -20 15 -22 40 -16z m1488 6 c19 -20 18 -35 -4 -42 -25 -8 -39
3 -20 15 8 4 11 15 8 24 -8 19 0 21 16 3z m195 1 c18 -18 14 -36 -9 -43 -30
-10 -57 18 -39 39 15 19 32 20 48 4z m-61 -44 c11 -29 -11 -48 -56 -49 -45 -1
-67 18 -55 49 9 23 102 22 111 0z m562 -33 c17 -16 31 -37 31 -48 0 -38 -13
-63 -31 -63 -20 0 -26 15 -10 25 12 7 6 42 -10 61 -15 18 -56 18 -75 0 -16
-17 -18 -35 -4 -37 6 -1 16 -2 23 -3 6 0 12 -8 12 -16 0 -8 -6 -15 -12 -14 -7
1 -24 2 -37 3 -45 2 -36 80 13 106 40 22 66 18 100 -14z m-481 -34 c23 -45 16
-67 -20 -64 -29 2 -62 70 -47 96 18 27 43 15 67 -32z m-203 22 c4 -12 1 -27
-8 -37 -7 -9 -17 -25 -20 -35 -5 -14 -13 -17 -29 -11 -27 8 -40 25 -29 39 4 5
15 22 24 38 21 32 53 36 62 6z m-1385 -3 c0 -7 -11 -30 -25 -50 -30 -44 -32
-61 -7 -51 37 16 59 17 65 2 4 -11 -14 -21 -71 -39 -42 -14 -80 -23 -84 -21
-4 2 6 25 22 52 17 27 30 51 30 54 0 3 -18 0 -40 -8 -36 -13 -42 -13 -47 1 -7
19 -10 18 77 47 41 13 76 25 78 26 1 0 2 -5 2 -13z m490 -36 c0 -4 11 -18 24
-31 22 -23 23 -25 5 -25 -10 0 -19 4 -19 8 0 4 -8 4 -17 1 -13 -5 -15 -2 -10
12 6 14 5 16 -7 6 -11 -9 -15 -7 -19 8 -2 11 0 24 5 29 11 11 38 5 38 -8z
m1015 -6 c32 -34 32 -68 0 -99 -37 -38 -97 -30 -120 16 -21 39 -19 56 10 84
33 34 78 33 110 -1z m-965 -4 c7 -13 7 -20 1 -20 -6 0 -15 9 -21 20 -7 13 -7
20 -1 20 6 0 15 -9 21 -20z m750 -45 c0 -27 -17 -36 -42 -23 -23 11 -23 34 -1
46 24 14 43 4 43 -23z m380 1 c0 -23 -22 -36 -42 -25 -23 12 -23 35 -1 48 19
10 43 -2 43 -23z m-297 -47 c21 -31 22 -37 10 -56 -19 -29 -44 -19 -69 26 -39
71 13 97 59 30z m227 21 c11 -18 -25 -86 -50 -93 -22 -6 -51 40 -33 51 7 4 16
19 22 33 11 29 45 34 61 9z m455 -41 c5 -6 5 -13 -2 -20 -8 -8 -19 -6 -41 5
-17 9 -35 16 -40 16 -5 0 -26 7 -47 15 -29 13 -34 19 -25 30 9 11 22 10 78
-11 37 -14 71 -30 77 -35z m-797 21 c29 -1 55 -49 56 -101 1 -26 4 -51 8 -55
14 -13 60 -6 77 13 25 27 85 23 112 -6 12 -12 27 -20 35 -17 27 10 14 -13 -26
-45 l-39 -32 29 -35 30 -36 -30 -31 c-77 -79 -289 -174 -425 -191 -133 -16
-330 4 -350 36 -10 15 46 46 90 49 6 1 11 15 12 32 3 38 7 43 28 35 13 -5 14
-10 5 -27 -15 -27 5 -54 20 -29 5 9 5 19 0 24 -13 13 0 36 22 36 47 0 128 84
128 132 0 18 5 20 33 15 17 -3 26 -3 20 0 -20 7 -15 23 5 17 14 -5 15 -4 2 5
-9 6 -18 7 -24 1 -15 -15 -23 -12 -29 9 -3 13 1 21 13 24 11 3 20 18 24 41 4
20 10 36 14 36 4 0 31 29 61 64 47 56 56 62 68 50 8 -8 22 -14 31 -14z m-1200
-23 c6 -6 13 -23 17 -37 6 -24 1 -28 -68 -61 l-75 -36 -16 34 c-9 18 -16 38
-16 43 0 17 25 11 38 -10 17 -28 44 -16 32 15 -12 31 15 43 31 14 5 -11 16
-18 22 -16 13 5 13 10 2 45 -7 25 15 31 33 9z m1902 -39 c38 -18 70 -36 70
-41 0 -20 -32 -67 -45 -67 -17 0 -19 14 -5 40 7 14 6 20 -7 24 -9 4 -17 5 -18
4 -1 -2 -6 -11 -11 -20 -6 -11 -14 -14 -23 -9 -10 6 -10 13 -2 29 9 16 7 21
-8 25 -13 3 -22 -3 -30 -20 -12 -26 -31 -23 -31 5 0 17 26 62 36 62 2 0 35
-14 74 -32z m-456 -1 c19 -30 -1 -47 -53 -47 -53 0 -69 16 -52 49 12 22 91 21
105 -2z m-124 -42 c10 -12 10 -18 0 -30 -25 -30 -67 -7 -49 27 12 22 32 23 49
3z m190 0 c10 -12 10 -18 0 -30 -17 -20 -37 -19 -49 3 -18 34 24 57 49 27z
m-1461 -19 c7 -8 15 -30 18 -50 5 -30 1 -40 -25 -66 -17 -16 -40 -30 -52 -30
-52 0 -108 56 -82 82 7 7 16 2 27 -15 21 -32 47 -39 72 -18 28 23 34 45 17 70
-23 32 0 57 25 27z m1748 -14 c9 -6 7 -12 -7 -25 -11 -9 -20 -24 -20 -32 0
-18 -1 -18 44 0 35 15 75 8 77 -13 0 -4 2 -15 4 -24 2 -9 -6 -27 -17 -40 -16
-19 -21 -20 -28 -8 -6 9 -5 19 0 24 6 6 10 16 10 23 0 15 -36 18 -45 3 -7 -12
-45 -13 -61 -2 -23 15 -25 48 -3 75 22 29 27 31 46 19z m-787 -12 c0 -5 -5
-10 -11 -10 -5 0 -7 5 -4 10 3 6 8 10 11 10 2 0 4 -4 4 -10z m-53 -131 c-15
-38 -44 -66 -54 -55 -4 4 -3 10 3 14 5 4 20 24 33 45 28 45 38 43 18 -4z
m-602 -139 c3 -5 2 -26 -4 -45 -11 -40 -7 -42 34 -15 22 14 32 16 42 8 11 -9
-1 -20 -52 -50 -37 -22 -69 -38 -72 -35 -7 8 28 147 38 147 4 0 11 -4 14 -10z
m1164 -52 c39 -49 48 -71 26 -68 -15 2 -95 102 -89 112 10 16 23 7 63 -44z
m-52 -72 c43 -29 48 -46 12 -46 -11 0 -31 -12 -45 -27 -33 -36 -35 -33 -49 82
l-8 60 24 -21 c13 -11 43 -33 66 -48z m-999 7 c-34 -64 -54 -93 -65 -93 -19 0
-15 21 7 50 11 14 20 29 20 33 0 4 7 19 16 33 23 35 41 16 22 -23z m120 -20
c20 -8 8 -28 -15 -25 -15 2 -25 -10 -45 -55 -20 -46 -27 -54 -33 -40 -4 11 1
37 13 67 17 40 18 49 6 54 -8 3 -14 12 -14 21 0 14 4 14 38 -1 20 -9 43 -18
50 -21z m746 -39 c15 -37 25 -68 22 -71 -2 -2 -23 5 -46 17 -23 12 -44 19 -46
17 -3 -2 1 -16 7 -31 9 -20 10 -29 1 -38 -9 -9 -16 -2 -28 28 -9 21 -16 39
-14 39 1 0 -5 13 -14 30 -8 16 -13 31 -11 33 2 2 27 -7 54 -21 28 -14 51 -23
51 -21 0 3 -7 18 -15 35 -15 28 -13 49 5 49 4 0 20 -30 34 -66z m-158 -20 c3
-15 7 -31 10 -36 3 -4 7 -24 10 -44 l4 -36 -27 17 c-80 52 -73 51 -63 13 13
-43 13 -48 -4 -48 -12 0 -24 32 -41 113 -7 35 1 34 53 -4 23 -17 42 -29 42
-27 0 2 -4 19 -10 38 -7 25 -7 36 2 41 16 10 18 8 24 -27z m-398 -7 c3 -15 -1
-17 -22 -11 -32 8 -56 -10 -56 -40 0 -26 18 -46 41 -46 9 0 19 -7 23 -15 4
-11 -2 -15 -22 -15 -71 0 -102 92 -45 136 25 19 77 14 81 -9z m62 -20 c0 -29
3 -33 23 -32 14 1 22 8 22 21 0 10 4 25 9 33 13 20 24 -5 21 -44 -2 -16 -3
-47 -4 -68 -1 -44 -23 -47 -31 -3 -9 52 -48 41 -41 -11 1 -7 -6 -13 -17 -13
-16 0 -18 7 -14 63 4 72 8 87 22 87 5 0 10 -15 10 -33z m190 16 c0 -7 -9 -13
-20 -13 -11 0 -20 -7 -20 -15 0 -8 6 -15 14 -15 8 0 18 -5 22 -11 8 -13 -15
-31 -29 -22 -5 3 -7 -3 -5 -13 2 -13 10 -18 27 -16 17 3 22 -1 19 -14 -3 -17
-39 -26 -64 -17 -6 2 -11 25 -13 51 -1 26 -3 56 -5 67 -2 11 4 23 13 27 25 10
61 5 61 -9z"/>
<path d="M1861 2731 c-17 -11 -7 -41 13 -41 22 0 30 20 15 36 -9 8 -19 10 -28
5z"/>
<path d="M1310 2693 c1 -19 19 -35 34 -30 26 10 19 37 -9 37 -14 0 -25 -3 -25
-7z"/>
<path d="M2066 2627 c-21 -55 -21 -57 8 -57 29 0 56 24 56 50 0 19 -25 50 -39
50 -5 0 -16 -19 -25 -43z"/>
<path d="M1197 2569 c4 -13 9 -17 15 -11 11 11 3 32 -12 32 -4 0 -6 -9 -3 -21z"/>
<path d="M1340 1136 c0 -22 17 -28 24 -10 9 22 8 24 -9 24 -8 0 -15 -6 -15
-14z"/>
<path d="M737 2262 c-15 -16 -15 -19 2 -29 14 -9 20 -7 29 7 17 28 -9 46 -31
22z"/>
<path d="M2028 1946 c-15 -16 -26 -32 -24 -34 9 -8 180 -5 183 4 1 5 -6 20
-16 32 -14 19 -28 24 -67 26 -43 2 -52 -2 -76 -28z m62 3 c0 -5 -4 -8 -9 -4
-5 3 -12 1 -16 -5 -10 -16 -25 -12 -19 5 7 17 44 21 44 4z"/>
<path d="M2230 1930 c0 -5 6 -10 14 -10 8 0 18 5 21 10 3 6 -3 10 -14 10 -12
0 -21 -4 -21 -10z"/>
<path d="M1977 1890 c-38 -3 -66 -9 -65 -15 2 -5 6 -9 11 -7 4 1 7 -2 7 -8 0
-5 -6 -10 -14 -10 -15 0 -29 -27 -21 -40 7 -11 35 -2 53 17 18 18 47 16 67 -3
24 -24 107 -26 123 -3 16 24 49 24 74 2 35 -31 48 -25 48 23 l0 44 -77 2 c-43
1 -91 2 -108 2 -16 1 -60 -1 -98 -4z"/>
<path d="M1962 1818 c-17 -17 -15 -36 6 -47 20 -11 42 3 42 26 0 19 -35 34
-48 21z"/>
<path d="M2163 1823 c-20 -7 -15 -41 7 -53 27 -15 47 21 24 44 -8 9 -16 16
-17 15 -1 0 -8 -3 -14 -6z"/>
<path d="M651 2104 c-12 -15 -21 -30 -21 -33 0 -15 42 -51 60 -51 40 0 68 63
38 88 -31 24 -56 23 -77 -4z"/>
<path d="M2692 1904 c-39 -27 -24 -79 25 -88 47 -9 76 62 37 91 -23 17 -35 16
-62 -3z"/>
<path d="M547 1614 c-15 -15 -7 -45 11 -42 9 2 17 12 17 22 0 20 -16 31 -28
20z"/>
<path d="M2715 1576 c-26 -19 -28 -49 -4 -75 31 -33 89 -11 89 34 0 41 -51 66
-85 41z"/>
<path d="M2113 1319 c-13 -5 -23 -13 -23 -18 0 -7 9 -6 25 1 18 8 35 8 60 1
21 -7 35 -7 35 -2 0 19 -65 30 -97 18z"/>
<path d="M2123 1293 c-7 -3 -13 -9 -13 -15 0 -6 7 -7 15 -4 11 4 15 0 13 -11
-3 -17 28 -27 38 -12 3 5 -2 9 -10 9 -9 0 -16 5 -16 11 0 6 9 8 20 4 11 -4 20
-2 20 4 0 6 -6 11 -12 12 -7 0 -20 2 -28 3 -8 2 -21 1 -27 -1z"/>
<path d="M1770 968 c0 -6 7 -7 16 -4 14 5 16 1 11 -29 -3 -19 -1 -37 4 -41 16
-9 17 -2 10 40 -4 26 -12 40 -24 42 -9 1 -17 -2 -17 -8z"/>
<path d="M1620 838 c0 -12 8 -18 24 -18 13 0 31 -3 40 -6 11 -4 16 -1 16 11 0
13 -6 15 -31 10 -22 -5 -34 -3 -40 6 -7 11 -9 10 -9 -3z"/>
<path d="M1445 750 c-3 -6 1 -7 9 -4 18 7 21 14 7 14 -6 0 -13 -4 -16 -10z"/>
<path d="M2180 674 c0 -8 5 -12 10 -9 6 4 8 11 5 16 -9 14 -15 11 -15 -7z"/>
</g>
</svg>
